<?xml version="1.0" standalone="no"?>
<!DOCTYPE svg PUBLIC "-//W3C//DTD SVG 20010904//EN"
 "http://www.w3.org/TR/2001/REC-SVG-20010904/DTD/svg10.dtd">
<svg version="1.0" xmlns="http://www.w3.org/2000/svg"
 width="200.000000pt" height="200.000000pt" viewBox="0 0 200.000000 200.000000"
 preserveAspectRatio="xMidYMid meet">

<g transform="translate(0.000000,200.000000) scale(0.100000,-0.100000)"
fill="#000000" stroke="none">
<path d="M0 1000 l0 -1000 1000 0 1000 0 0 1000 0 1000 -1000 0 -1000 0 0
-1000z m430 219 c-6 -9 -21 -26 -35 -37 -14 -11 -25 -24 -25 -29 0 -5 25 -33
55 -63 46 -45 55 -60 55 -90 0 -32 -11 -46 -137 -167 l-138 -132 -33 32 -32
31 42 43 42 43 -57 58 c-89 90 -87 97 75 259 l132 133 33 -32 c25 -24 30 -35
23 -49z m328 -151 c3 -14 -4 -17 -39 -15 -44 2 -66 -18 -32 -29 61 -19 83 -35
83 -58 0 -32 -35 -56 -81 -56 -48 0 -69 8 -69 27 0 12 9 14 43 9 71 -10 93 25
24 39 -36 8 -67 32 -67 52 0 7 9 22 21 34 26 26 112 24 117 -3z m212 7 c0 -12
-13 -15 -55 -15 -48 0 -55 -2 -55 -20 0 -17 7 -20 45 -20 37 0 45 -3 45 -19 0
-14 -8 -18 -32 -19 -56 0 -60 -2 -56 -19 2 -14 11 -17 35 -15 42 4 73 -6 73
-24 0 -11 -17 -14 -75 -14 l-75 0 0 90 0 90 75 0 c60 0 75 -3 75 -15z m121
-26 l32 -40 41 40 c23 23 50 41 59 41 16 0 17 -10 15 -87 -3 -80 -5 -88 -23
-88 -17 0 -21 8 -25 53 l-5 54 -24 -26 c-31 -33 -38 -32 -73 1 l-28 27 0 -57
c0 -50 -2 -57 -20 -57 -19 0 -20 7 -20 90 0 82 2 90 19 90 11 0 34 -18 52 -41z
m349 -45 c22 -47 40 -88 40 -90 0 -13 -38 -1 -53 16 -11 13 -29 20 -52 20 -24
0 -39 -6 -47 -20 -12 -19 -48 -28 -48 -12 0 4 16 44 37 90 31 70 40 82 60 82
20 0 30 -13 63 -86z m226 61 c18 -19 23 -31 19 -48 -11 -36 -30 -49 -79 -54
-40 -5 -46 -9 -46 -29 0 -17 -6 -24 -20 -24 -19 0 -20 7 -20 90 l0 90 60 0
c52 0 65 -4 86 -25z m183 -52 c18 -43 36 -84 38 -90 8 -22 -35 -15 -47 7 -8
15 -21 20 -50 20 -29 0 -42 -5 -50 -20 -12 -22 -55 -29 -47 -7 2 6 20 47 38
90 29 68 36 77 59 77 23 0 30 -9 59 -77z"/>
<path d="M245 1039 l-40 -40 45 -39 45 -39 40 39 39 40 -39 40 c-21 22 -42 40
-45 40 -3 0 -24 -18 -45 -41z"/>
<path d="M1362 1015 c-16 -35 -16 -35 18 -35 l31 0 -16 30 c-9 17 -17 30 -19
30 -1 0 -8 -11 -14 -25z"/>
<path d="M1567 1053 c-4 -3 -7 -17 -7 -30 0 -20 5 -23 35 -23 39 0 55 21 35
45 -13 15 -51 20 -63 8z"/>
<path d="M1773 1010 c-11 -29 -10 -30 17 -30 27 0 28 1 17 30 -6 17 -14 30
-17 30 -3 0 -11 -13 -17 -30z"/>
</g>
</svg>
